<?xml version="1.0" encoding="utf-8"?>
<!-- Generator: Adobe Illustrator 16.0.3, SVG Export Plug-In . SVG Version: 6.00 Build 0)  -->
<!DOCTYPE svg PUBLIC "-//W3C//DTD SVG 1.1//EN" "http://www.w3.org/Graphics/SVG/1.1/DTD/svg11.dtd">
<svg version="1.1" id="Layer_1" xmlns="http://www.w3.org/2000/svg" xmlns:xlink="http://www.w3.org/1999/xlink" x="0px" y="0px"
	 width="100px" height="18px" viewBox="0 0 100 18" enable-background="new 0 0 100 18" xml:space="preserve">
<g>
	<path fill="none" stroke="#D1D3D4" stroke-width="0.5" stroke-miterlimit="10" d="M6.114,6.33C6.729,6.284,6.86,5.263,6.86,5.263
		c0-0.582,0.473-1.055,1.056-1.055s1.056,0.473,1.056,1.056c0,0.583-0.716,1.598-0.871,1.832C7.946,7.327,7.653,8.539,7.653,8.539
		l2.4,1.007c0,0,0.802,0.225,0.672,0.717c-0.13,0.494-0.877,0.377-0.877,0.377L7.392,9.575L6.923,11.45l2.608,4.99
		c0,0,0.256,1.05-0.5,1.179c-0.756,0.13-0.912-0.923-0.912-0.923L5.934,12.57l-1.791,4.045c0,0-0.679,1.08-1.255,0.718
		c-0.576-0.362-0.084-1.173-0.084-1.173l1.966-4.754l0.619-2.932c0,0,0.149-0.654-0.293-0.821C4.651,7.486,4.386,8.218,4.386,8.218
		l-0.833,3.188c0,0-0.275,0.485-0.714,0.285c-0.439-0.2-0.231-0.772-0.231-0.772l0.69-2.862"/>
	<circle fill="none" stroke="#D1D3D4" stroke-width="0.25" stroke-miterlimit="10" cx="3.349" cy="7.683" r="0.489"/>
	<circle fill="none" stroke="#D1D3D4" stroke-width="0.25" stroke-miterlimit="10" cx="5.72" cy="6.362" r="0.489"/>
</g>
<g>
	<path fill="none" stroke="#D1D3D4" stroke-width="0.5" stroke-miterlimit="10" d="M25.222,5.748c1.505,0,1.502,1.502,1.502,1.502
		v6.144c0,1.805,1.463,3.268,3.268,3.268c1.805,0,3.268-1.463,3.268-3.268s-1.463-3.269-3.268-3.269
		c-3.922,0-3.922,6.536-7.844,6.536c-1.699,0-3.268-1.463-3.268-3.268s1.463-3.269,3.268-3.269c0,0,1.177-0.124,1.177-2.219h-2.223"
		/>
	<circle fill="none" stroke="#D1D3D4" stroke-width="0.25" stroke-miterlimit="10" cx="24.761" cy="5.748" r="0.571"/>
	<circle fill="none" stroke="#D1D3D4" stroke-width="0.25" stroke-miterlimit="10" cx="20.696" cy="7.905" r="0.571"/>
</g>
<g>
	<path fill="none" stroke="#D1D3D4" stroke-width="0.5" stroke-miterlimit="10" d="M41.76,16.291h1.747c0,0,0.094-2.441,2.425-2.441
		c2.33,0,2.342,2.325,2.342,2.325h1.549c0.653,0,0.723-1.104,0.723-1.104s0-6.353,0-7.285c0-0.932,0.886-0.886,0.886-0.886
		s1.585,0,2.61,0c1.024,0,1.071,1.072,1.071,1.072v7.039c0,1.166,0.932,1.165,0.932,1.165c0.746,0,0.984,0,1.166,0
		c0.962,0,0.962-0.746,0.962-0.746s0-5.127,0-7.428s-2.453-2.453-2.453-2.453H41.76"/>
	<circle fill="none" stroke="#D1D3D4" stroke-width="0.25" stroke-miterlimit="10" cx="41.2" cy="5.548" r="0.571"/>
	<circle fill="none" stroke="#D1D3D4" stroke-width="0.25" stroke-miterlimit="10" cx="41.2" cy="16.291" r="0.571"/>
</g>
</svg>
